<svg id="Layer_1" data-name="Layer 1" xmlns="http://www.w3.org/2000/svg" viewBox="0 0 1024 1024"><defs><style>.cls-1,.cls-2{fill:#fff;}.cls-2{stroke:#fff;stroke-miterlimit:10;stroke-width:0.25px;}</style></defs><path class="cls-1" d="M488.33,500.9C512,412.37,615.1,379.16,685.19,434.05c-61-66.32-178.77-54.37-222.76,32.38-83-89.81,4.6-254.89,134.64-265.5-71.26,3.45-133,34.25-175.5,120.45V278.52c-11.09-64.38-51.06-91.71-110.47-94.09V560.26a104.19,104.19,0,0,0,3.76,27.93c14.93,53.65,51.17,79.2,106.71,79.29l194.67.38V571.67h-92C517.82,545.1,504.76,522.1,488.33,500.9ZM421.57,619.41V458.65a332,332,0,0,0,28.7,43.43q-8.89,50.59,13.71,81.78Q440,590.46,421.57,619.41Z"/><path class="cls-2" d="M462.43,235.67c-5-.41-6-5.33-4.76-12.77,30.76,3.53,18.38-12,23.52-28.09-12.72-8.82-25.13-16.55-36.76-21.62,2.33,4.07,4.2,7.95,2.38,10.38-11.58,13.75-3.41,25.23,3.71,36.83a96.13,96.13,0,0,1,10.67-25.5,86.26,86.26,0,0,0-7.62,26.29c-2.48,14.85,1.25,17.2,5.33,18.86A5.61,5.61,0,0,0,462.43,235.67Z"/><path class="cls-2" d="M486.62,194.33q-14.17-9-28-16.09c12.42-5.18,26.65-6.75,42.28-5.53C490.84,177,484.68,183.47,486.62,194.33Z"/><path class="cls-1" d="M547.8,232.39c-2.84,4.1.33,8,6.86,11.77,16.76-26,20.93-6.62,36.64-.41-1.23,15.44-3.11,29.93-6.56,42.14-1.67-4.38-3.49-8.28-6.52-8.41-18,.25-21.69-13.35-26.15-26.21a96.42,96.42,0,0,0,26.49,7.9,86.15,86.15,0,0,1-25.17-10.76c-13.07-7.48-12.52-11.86-11.21-16.07A5.61,5.61,0,0,1,547.8,232.39Z"/><path class="cls-1" d="M595.11,239.85c-1.32,11.13-3.1,21.73-5.29,31.87,11.88-6.34,22.11-16.35,31.06-29.22C611.17,247.55,602.28,248.23,595.11,239.85Z"/><path class="cls-1" d="M456.74,338.88c2.36,4.4,7.27,3.36,13.61-.71-15.48-26.82,3.69-21.64,16.41-32.77,13.16,8.16,25.18,16.47,34.46,25.12-4.65-.52-9-.69-10.47,2-8,16.1-21.78,13.17-35.26,11.25a96.12,96.12,0,0,0,19.14-19.93,85.89,85.89,0,0,1-21.08,17.45c-12.64,8.19-16.28,5.7-19.42,2.62A5.6,5.6,0,0,1,456.74,338.88Z"/><path class="cls-1" d="M485,300.23c9.3,6.27,17.91,12.7,25.91,19.28-.19-13.45-4.41-27.13-11.76-41C499.22,289.47,495.77,297.69,485,300.23Z"/><path class="cls-1" d="M565.51,387.84c-4.13-2.81-2.57-7.58,2.15-13.45,25,18.24,21.91-1.37,34.33-12.83-6.71-13.95-13.69-26.79-21.31-36.94,0,4.68-.27,9-3,10.2-16.86,6.25-15.42,20.26-14.94,33.86a96.48,96.48,0,0,1,21.86-16.91A86,86,0,0,0,565,370.88c-9.49,11.69-7.4,15.58-4.67,19A5.6,5.6,0,0,0,565.51,387.84Z"/><path class="cls-1" d="M606.94,363.83Q599.1,349,590.53,336c13.36,1.63,26.52,7.28,39.51,16.06C619.16,350.86,610.62,353.42,606.94,363.83Z"/><path class="cls-2" d="M622.81,431.73c-3.2,3.83-.4,8,5.75,12.35,19.09-24.38,21.45-4.66,36.52,3-2.64,15.26-5.85,29.52-10.41,41.36-1.26-4.51-2.71-8.57-5.72-9-17.93-1.41-20.36-15.28-23.62-28.5A96.08,96.08,0,0,0,651,461.23a85.8,85.8,0,0,1-24.06-13c-12.33-8.65-11.37-13-9.69-17A5.59,5.59,0,0,1,622.81,431.73Z"/><path class="cls-2" d="M669.23,443.52Q665.73,460,661,474.76c12.41-5.21,23.52-14.24,33.62-26.23C684.52,452.66,675.6,452.53,669.23,443.52Z"/><path class="cls-2" d="M516.53,466.4c-3.2,3.83-.41,8,5.74,12.35,19.09-24.38,21.45-4.67,36.53,3-2.65,15.26-5.86,29.51-10.42,41.36-1.25-4.52-2.71-8.57-5.72-9-17.92-1.41-20.36-15.29-23.61-28.5a96.14,96.14,0,0,0,25.64,10.3,86,86,0,0,1-24.07-13c-12.32-8.66-11.37-13-9.69-17A5.63,5.63,0,0,1,516.53,466.4Z"/><path class="cls-2" d="M563,478.19c-2.34,11-5.09,21.35-8.2,31.24,12.41-5.21,23.52-14.24,33.62-26.24C578.23,487.33,569.32,487.19,563,478.19Z"/></svg>